<?xml version="1.0" standalone="no"?>
<!DOCTYPE svg PUBLIC "-//W3C//DTD SVG 20010904//EN"
 "http://www.w3.org/TR/2001/REC-SVG-20010904/DTD/svg10.dtd">
<svg version="1.0" xmlns="http://www.w3.org/2000/svg"
     width="100%" height="100%"
     viewBox="270 191 740 740"
     preserveAspectRatio="xMidYMid meet">
  <metadata>
    Created by potrace 1.15, written by Peter Selinger 2001-2017
  </metadata>
  <g transform="translate(-360.000000,975.000000) scale(0.100000,-0.100000)"
     fill="#ffffff" stroke="none">
    <path d="M11658 7674 c-41 -17 -48 -32 -78 -147 -92 -351 -149 -704 -185
-1132 -8 -99 -20 -218 -27 -265 -7 -57 -9 -199 -5 -433 7 -386 5 -402 -62
-570 -17 -43 -36 -111 -41 -150 -12 -96 -19 -640 -25 -1987 -3 -613 -8 -1317
-11 -1565 l-5 -450 24 -39 25 -40 -29 -27 c-37 -34 -38 -77 -5 -134 51 -86
153 -128 353 -147 137 -12 375 1 468 25 110 30 176 83 189 151 9 46 -14 96
-55 120 -28 17 -30 20 -14 28 46 26 45 -27 34 1670 -5 876 -14 1775 -19 1998
-10 430 -15 482 -65 599 -42 101 -48 176 -42 536 3 182 1 355 -4 385 -5 30
-20 179 -33 330 -14 151 -30 309 -36 350 -13 97 -148 785 -161 827 -6 18 -24
44 -40 58 -36 29 -93 33 -151 9z"/>
    <path d="M9973 7313 c-17 -2 -36 -10 -41 -16 -15 -18 -86 -244 -126 -398 -67
-260 -97 -474 -116 -823 -8 -154 -13 -192 -28 -211 -16 -20 -18 -58 -21 -436
-3 -476 -4 -478 -95 -677 -30 -66 -59 -138 -65 -159 -6 -22 -10 -242 -11 -533
-1 -557 -15 -1620 -30 -2200 -5 -212 -10 -469 -10 -571 0 -175 1 -189 25 -247
14 -34 25 -79 25 -101 0 -34 -4 -42 -35 -60 -30 -17 -35 -26 -35 -56 0 -54 25
-94 74 -116 154 -68 744 -86 956 -29 55 15 100 67 102 117 1 45 -12 68 -43 78
-30 10 -25 74 11 145 l30 60 0 1752 0 1751 -34 81 c-137 326 -131 287 -122
793 7 388 7 392 -14 403 -18 10 -20 20 -20 133 0 206 -27 507 -61 672 -57 282
-144 613 -167 637 -9 9 -110 17 -149 11z"/>
    <path d="M8292 6857 c-17 -20 -63 -147 -61 -166 1 -9 -6 -33 -15 -54 -23 -51
-70 -244 -100 -407 -30 -163 -43 -295 -57 -585 -6 -131 -15 -222 -21 -226 -6
-4 -13 -109 -18 -280 l-8 -274 -83 -215 c-45 -118 -90 -238 -100 -265 -16 -45
-19 -116 -29 -565 -6 -283 -17 -814 -25 -1180 -8 -366 -17 -789 -20 -940 -3
-151 -8 -340 -11 -420 l-5 -146 35 -52 c42 -61 46 -93 12 -111 -31 -17 -46
-51 -46 -106 0 -39 5 -50 39 -84 43 -43 89 -61 226 -88 119 -23 442 -23 562 0
100 19 185 56 208 91 38 58 25 149 -25 176 -28 15 -25 38 14 95 l34 50 11 975
c6 536 12 1268 14 1625 l2 650 -78 215 c-108 297 -107 291 -107 582 0 198 -3
249 -14 255 -10 6 -14 62 -19 258 -8 325 -37 565 -102 845 -19 80 -39 181 -45
225 -15 108 -31 129 -102 133 -37 2 -58 -1 -66 -11z"/>
  </g>
</svg>
