<?xml version="1.0" encoding="UTF-8" standalone="no"?>
<svg
   version="1.1"
   viewBox="-5 -10 48.312199 75.3405"
   id="svg7"
   sodipodi:docname="ammo.svg"
   width="48.312199"
   height="75.3405"
   inkscape:version="1.4.2 (ebf0e940d0, 2025-05-08)"
   xmlns:inkscape="http://www.inkscape.org/namespaces/inkscape"
   xmlns:sodipodi="http://sodipodi.sourceforge.net/DTD/sodipodi-0.dtd"
   xmlns="http://www.w3.org/2000/svg"
   xmlns:svg="http://www.w3.org/2000/svg">
  <defs
     id="defs7" />
  <sodipodi:namedview
     id="namedview7"
     pagecolor="#505050"
     bordercolor="#ffffff"
     borderopacity="1"
     inkscape:showpageshadow="0"
     inkscape:pageopacity="0"
     inkscape:pagecheckerboard="1"
     inkscape:deskcolor="#505050"
     inkscape:zoom="8.4531402"
     inkscape:cx="36.022117"
     inkscape:cy="42.410275"
     inkscape:window-width="2560"
     inkscape:window-height="1372"
     inkscape:window-x="0"
     inkscape:window-y="0"
     inkscape:window-maximized="1"
     inkscape:current-layer="svg7" />
  <path
     d="M 11.5471,19.6883 H -2.5039 C -3.875,19.6883 -5,20.8133 -5,22.1844 v 40.66 c 0,1.3711 1.125,2.4961 2.4961,2.4961 h 14.051 c 1.3711,0 2.4961,-1.125 2.4961,-2.4961 v -40.66 c 0,-1.3711 -1.125,-2.4961 -2.4961,-2.4961 z"
     id="path1"
     style="fill:#ffffff;fill-opacity:1" />
  <path
     d="M 9.1521,-3.4727 C 7.9724,-5.918 6.4138,-8.1602 4.5193,-10 0.6834,-6.4258 -2.0276,-0.8672 -2.5471,4.496 h 14.094 C 11.17971,1.7616 10.3633,-0.961 9.1524,-3.4767 Z"
     id="path2"
     inkscape:label="path2"
     style="stroke:none;fill:#ffffff;fill-opacity:1" />
  <path
     d="m 40.8161,19.6883 h -14.051 c -1.3711,0 -2.4961,1.125 -2.4961,2.4961 v 40.66 c 0,1.3711 1.125,2.4961 2.4961,2.4961 h 14.051 c 1.3711,0 2.4961,-1.125 2.4961,-2.4961 v -40.66 c 0,-1.3711 -1.125,-2.4961 -2.4961,-2.4961 z"
     id="path3"
     style="fill:#ffffff;fill-opacity:1" />
  <path
     d="M 38.4221,-3.4727 C 37.2424,-5.918 35.6838,-8.1602 33.7893,-10 c -3.832,3.5742 -6.5469,9.1328 -7.0664,14.496 h 14.094 C 40.44971,1.7616 39.6372,-0.961 38.4224,-3.4767 Z"
     id="path4"
     style="fill:#ffffff;fill-opacity:1" />
  <path
     d="m 40.9221,6.3013 h -14.266 v 11.59 c 4.668,-0.11328 9.5977,-0.11328 14.266,0 z"
     id="path5"
     style="fill:#ffffff;fill-opacity:1" />
  <path
     d="m 11.6561,17.8873 v -11.59 h -14.266 v 11.59 c 4.668,-0.11328 9.5977,-0.11328 14.266,0 z"
     id="path6"
     style="display:inline;fill:#ffffff;fill-opacity:1" />
  <rect
     style="fill:#00ccff;fill-opacity:0;stroke-width:2.98961"
     id="rect11"
     width="75"
     height="100"
     x="-12.184052"
     y="-14.227917" />
</svg>
